<?xml version="1.0" encoding="UTF-8"?>
<svg xmlns="http://www.w3.org/2000/svg" version="1.1" viewBox="0 0 62.8 73.3">
  <defs>
    <style>
      .cls-1 {
        fill: palevioletred;
      }

      .cls-2 {
        fill: gold;
      }
    </style>
  </defs>
  <!-- Generator: Adobe Illustrator 28.7.1, SVG Export Plug-In . SVG Version: 1.2.0 Build 142)  -->
  <g>
    <g id="Layer_1">
      <g>
        <g>
          <path class="cls-1" d="M22.4,23.2c.7-.6,1.4-1.2,2.1-1.5-.7-2-1.8-2.8-2.6-2.9-.5,0-.9.1-1,.5-.3.6,0,1.9,1.4,3.6,0,0,.1.2.1.3Z"/>
          <path class="cls-1" d="M16.8,60.7c0,1.3,0,3.6-.6,4.3,0,.1.7.4,1.1.2.1,0,.3,0,.4,0,0,0,1.3.6,2.5.2,0-.9,0-1.8,0-2.9-.6-.2-1.2-.5-1.7-.7-.6-.3-1.2-.7-1.7-1.1Z"/>
          <path class="cls-1" d="M40.2,22.9c1.5-1.7,1.8-3,1.4-3.6-.2-.4-.6-.6-1-.5-.8,0-2,.9-2.6,2.9.7.3,1.4.9,2.1,1.5,0-.1,0-.2.1-.3Z"/>
          <path class="cls-1" d="M20.4,30.8s0,0,0,0c0,1.2-.7,2.4-1.5,3.8-.9,1.5-1.9,3-1.7,4.4,2-1.2,4.6-1.8,6.6-2.2,1.3-.3,2.4-.5,3.1-.9.2-.1.5,0,.7.2s0,.5-.2.7c-.7.4-1.9.6-3.3.9-4,.9-9.5,2-9.4,7.4,0,1.5,1,3.8,3.3,5.2,1.5.9,4,1.7,7.3.2,4.2-2,5.5-2.1,6.1-2,.5-.2,1.8,0,6.1,2,3.4,1.6,5.8.8,7.3-.2,2.2-1.4,3.2-3.7,3.3-5.2,0-5.3-5.4-6.5-9.4-7.4-1.4-.3-2.6-.6-3.3-.9-.2-.1-.3-.4-.2-.7.1-.2.4-.3.7-.2.6.3,1.7.6,3.1.9,2,.4,4.6,1,6.6,2.2.2-1.4-.8-2.9-1.7-4.4-.8-1.4-1.6-2.6-1.5-3.8.3-3.7-2.2-7.1-4.7-8.3-2.2-1-3.8-1.2-5.6-1.2,0,0-.1,0-.2,0-.1,0-.2,0-.3,0-.1,0-.2,0-.3,0,0,0-.2,0-.2,0-1.8,0-3.4.2-5.6,1.2-2.5,1.1-5,4.6-4.7,8.3,0,0,0,0,0,0ZM26.6,42.1s0,0,0,0c-.3,0-.5-.2-.5-.4,0-.7-1-1.2-1.7-1.2-.3,0-.5-.2-.5-.5s.2-.5.5-.5c1.2,0,2.6.8,2.7,2.1,0,.3-.2.5-.4.6ZM38.1,39.5c.3,0,.5.3.5.5s-.2.5-.5.5c-.7,0-1.6.5-1.7,1.2,0,.3-.2.4-.5.4s0,0,0,0c-.3,0-.5-.3-.4-.6.1-1.3,1.6-2.2,2.7-2.1ZM35.5,30c.2-.2.5-.3.7-.1.7.5,1.9.3,2.4-.2.2-.2.5-.2.7,0,.2.2.2.5,0,.7-.5.5-1.3.8-2.2.8s-1.1-.1-1.5-.4c-.2-.2-.3-.5-.1-.7ZM23.1,29.7c.2-.2.5-.2.7,0,.6.5,1.9.8,2.6.3.2-.2.5,0,.7.1.2.2,0,.5-.1.7-.4.3-1,.4-1.5.4-.9,0-1.8-.3-2.3-.9-.2-.2-.2-.5,0-.7Z"/>
          <path class="cls-1" d="M50.8,41.7c-1.1-5.5-4-9.3-7.6-10.2.2.8.7,1.7,1.3,2.6,1.1,1.7,2.2,3.6,1.7,5.5,1.6,1.2,2.7,2.9,2.6,5.6,0,2.2-1.6,4.7-3.7,6-1.3.8-2.7,1.2-4.2,1.2s-.7,0-1,0c-1.2.6-5.5,2.8-8.8,2.8s-8.7-2.6-9-2.8c-.2,0-.5,0-.7,0-1.5,0-2.9-.4-4.2-1.2-2.2-1.4-3.7-3.8-3.7-6,0-2.6,1.1-4.3,2.6-5.6-.5-1.9.7-3.8,1.7-5.5.5-.9,1.1-1.7,1.3-2.4-4.5,2.2-7.4,7.1-7.7,13.4-.3,7,2.6,13.4,7.4,15.8.4.2.8.4,1.3.6,0-2.2,0-4.6,0-6.9,0-.3.2-.5.5-.5.3,0,.5.2.5.5,0,.1,0,.3,0,.4,0,2,0,4.5,0,6.9,0,.4,0,.7,0,1,0,3.3-.2,6.1-.7,6.5,0,0,0,.2.2.3.4.2.9.2,1.2.1.1,0,.3,0,.4,0,0,0,1.6.8,3.1.2,0,0,.2,0,.3,0,.7,0,1.4,0,1.7,0h0c0-.2-.6-3.2-.7-6,0-.3,0-.7,0-1,0-1,.1-2,.4-2.8,0,0,0-.1,0-.2.1-.2.3-.2.5-.2.3,0,.4.4.3.6-.2.7-.3,1.6-.3,2.6,2.7.3,5.5.3,8.1.2,0-1,0-2-.3-2.7,0-.3,0-.5.3-.6.2,0,.4,0,.5.1,0,0,0,.1,0,.2.3.8.4,1.8.4,3,0,.3,0,.7,0,1-.1,2.8-.7,5.6-.7,5.8h0c.2.1,1,.1,1.7,0,0,0,.2,0,.3,0,1.5.6,3.1-.2,3.1-.2.1,0,.3,0,.4,0,.3.1.8,0,1.2-.1.2-.1.3-.2.3-.2-.4-.4-.7-3-.8-6.1,0-.3,0-.7,0-1,0-2.5,0-5.1,0-7.3,0-.1,0-.3,0-.4,0-.3.2-.5.5-.5h0c.3,0,.5.2.5.5,0,2.5,0,5.1,0,7.4.5-.2.9-.4,1.2-.6,6.4-3.8,7.8-12.9,6.4-19.7Z"/>
          <path class="cls-1" d="M31.8,49.5c0,.1-.1.2-.2.3,0,0-.2,0-.3,0,0,0-.2,0-.3,0-.1,0-.2-.2-.2-.3-.4,0-1.7.3-5.1,1.9-.6.3-1.1.5-1.7.6,1.7.8,4.9,2.1,7.3,2.1s5.5-1.3,7.2-2.1c-.5-.1-1-.3-1.5-.6-3.4-1.6-4.7-1.9-5.1-1.9Z"/>
          <path class="cls-1" d="M47.2,60.4c-.7.7-1.5,1.3-2.4,1.8-.5.3-1.1.5-1.7.8,0,.9,0,1.7,0,2.5.1,0,.3-.1.4,0,1.2.5,2.6-.2,2.6-.2.1,0,.3,0,.4,0,.4.2,1.1-.1,1.2-.3-.8-.7-.7-3.4-.6-4.6Z"/>
          <path class="cls-1" d="M35.5,70h0s0,0,0,0h.5c0,0,0,0,0,0h-.5Z"/>
        </g>
        <g>
          <path class="cls-2" d="M48.2,60.4c0-.3-.2-.5-.5-.5,0,0,0,0,0,0,4.4-4.7,5.3-12.4,4.1-18.4-1.2-6-4.5-10.2-8.6-11,0-2.5-1-5-2.6-6.7.1,0,.3,0,.3-.2,2.3-2.5,1.9-4.1,1.6-4.7-.4-.7-1.1-1.1-2-1.1-1.2.1-2.6,1.1-3.5,3.5-2.2-.9-3.9-1-5.8-.9-1.9-.1-3.6,0-5.8.9-.8-2.4-2.3-3.4-3.5-3.5-.9,0-1.7.3-2,1.1-.3.6-.7,2.2,1.6,4.7,0,.1.2.2.3.2-1.5,1.7-2.7,4.2-2.6,6.8-5.2,2.2-8.4,7.6-8.8,14.5-.3,6.1,1.8,11.7,5.3,14.9-.1,0-.2.2-.2.4.1,1.8,0,3.6-.3,3.9-.4.3-.4.8-.2,1.2.4.6,1.3.9,2.1.8.3.1,1,.4,1.9.4s.5,0,.8,0c0,1.2-.2,2-.3,2.2-.4.4-.5.9-.2,1.3.4.6,1.5,1,2.4.8.4.1,1.2.4,2.2.4s1,0,1.5-.3c.7,0,2,.2,2.5-.4.1-.1.3-.4.1-.8,0,0-.6-2.9-.7-5.7,1.6.2,3.3.3,4.9.3s2.1,0,3.1,0c-.1,2.7-.7,5.4-.7,5.4-.2.4,0,.8.1.9.5.6,1.8.5,2.5.4.5.2,1,.3,1.5.3,1,0,1.8-.3,2.2-.4.9.2,2-.2,2.4-.8.3-.4.2-.9-.2-1.2-.1-.2-.2-1.1-.3-2.4,0,0,0,0,0,0,.5.2,1,.3,1.4.3.8,0,1.5-.2,1.9-.4.8.2,1.8-.2,2.1-.8.2-.4.2-.9-.2-1.2-.3-.3-.4-2.1-.3-3.9ZM40.6,18.8c.5,0,.9.1,1,.5.3.6,0,1.9-1.4,3.6,0,0-.1.2-.1.3-.7-.6-1.4-1.2-2.1-1.5.7-2,1.8-2.8,2.6-2.9ZM22.3,22.9c-1.5-1.7-1.8-3-1.4-3.6.2-.4.6-.6,1-.5.8,0,2,.9,2.6,2.9-.7.3-1.4.9-2.1,1.5,0-.1,0-.2-.1-.3ZM25,22.5c2.2-1,3.8-1.2,5.6-1.2,0,0,.2,0,.2,0,.1,0,.2,0,.3,0,.1,0,.2,0,.3,0,0,0,.2,0,.2,0,1.8,0,3.4.2,5.6,1.2,2.5,1.1,5,4.6,4.7,8.3,0,1.2.7,2.5,1.5,3.8.9,1.5,1.9,3,1.7,4.4-2-1.2-4.6-1.8-6.6-2.2-1.3-.3-2.4-.5-3.1-.9-.2-.1-.5,0-.7.2-.1.2,0,.5.2.7.7.4,1.9.6,3.3.9,4,.9,9.5,2,9.4,7.4,0,1.5-1,3.8-3.3,5.2-1.5.9-4,1.7-7.3.2-4.2-2-5.5-2.1-6.1-2-.5-.2-1.8,0-6.1,2-3.4,1.6-5.8.8-7.3-.2-2.2-1.4-3.2-3.7-3.3-5.2,0-5.3,5.4-6.5,9.4-7.4,1.4-.3,2.6-.6,3.3-.9.2-.1.3-.4.2-.7s-.4-.3-.7-.2c-.6.3-1.7.6-3.1.9-2,.4-4.6,1-6.6,2.2-.2-1.4.8-2.9,1.7-4.4.8-1.3,1.6-2.6,1.5-3.8,0,0,0,0,0,0,0,0,0,0,0,0-.3-3.7,2.2-7.1,4.7-8.3ZM31,49.8c0,0,.2,0,.3,0,0,0,.2,0,.3,0,.1,0,.2-.2.2-.3.4,0,1.7.3,5.1,1.9.5.2,1,.4,1.5.6-1.7.8-4.8,2.1-7.2,2.1s-5.6-1.3-7.3-2.1c.6-.2,1.1-.4,1.7-.6,3.4-1.6,4.7-1.9,5.1-1.9,0,.1.1.2.2.3ZM17.7,65.2c-.1,0-.3,0-.4,0-.4.2-1.1-.1-1.1-.2.7-.7.7-3,.6-4.3.5.4,1.1.8,1.7,1.1.5.3,1.1.5,1.7.7,0,1.1,0,2.1,0,2.9-1.2.4-2.5-.2-2.5-.2ZM27.6,63.1c0-1,0-1.9.3-2.6,0-.3,0-.5-.3-.6-.2,0-.4,0-.5.2,0,0,0,.1,0,.2-.2.7-.3,1.7-.4,2.8,0,.3,0,.7,0,1,0,2.8.7,5.8.7,6h0c-.3.1-1,.1-1.7,0,0,0-.2,0-.3,0-1.5.6-3.1-.2-3.1-.2-.1,0-.3,0-.4,0-.3.1-.8,0-1.2-.1-.2-.1-.3-.2-.2-.3.4-.4.6-3.2.7-6.5,0-.3,0-.7,0-1,0-2.3,0-4.8,0-6.9,0-.1,0-.3,0-.4,0-.3-.2-.5-.5-.5-.3,0-.5.2-.5.5,0,2.3,0,4.8,0,6.9-.5-.2-.9-.4-1.3-.6-4.8-2.4-7.7-8.8-7.4-15.8.3-6.3,3.2-11.2,7.7-13.4-.2.7-.7,1.6-1.3,2.4-1.1,1.7-2.2,3.6-1.7,5.5-1.6,1.2-2.7,2.9-2.6,5.6,0,2.2,1.6,4.7,3.7,6,1.3.8,2.7,1.2,4.2,1.2s.5,0,.7,0c.3.2,5.3,2.8,9,2.8s7.6-2.2,8.8-2.8c.3,0,.7,0,1,0,1.5,0,2.9-.4,4.2-1.2,2.2-1.4,3.7-3.8,3.7-6,0-2.6-1.1-4.3-2.6-5.6.5-1.9-.7-3.8-1.7-5.5-.6-1-1.2-1.9-1.3-2.6,3.6.8,6.4,4.7,7.6,10.2,1.4,6.8,0,15.8-6.4,19.7-.3.2-.8.4-1.2.6,0-2.3,0-4.9,0-7.4,0-.3-.2-.5-.5-.5h0c-.3,0-.5.2-.5.5,0,.1,0,.3,0,.4,0,2.1,0,4.8,0,7.3,0,.3,0,.7,0,1,0,3.1.3,5.7.8,6.1,0,0,0,.1-.3.2-.4.2-.9.2-1.2.1-.1,0-.3,0-.4,0,0,0-1.6.8-3.1.2,0,0-.2,0-.3,0-.7.1-1.5,0-1.7,0h0c0-.2.6-3,.7-5.8,0-.3,0-.7,0-1,0-1.1,0-2.2-.4-3,0,0,0-.1,0-.2-.1-.1-.3-.2-.5-.1-.3,0-.4.4-.3.6.2.7.3,1.7.3,2.7-2.6.2-5.4.1-8.1-.2ZM35.5,70h0s.5,0,.5,0c0,0,0,0,0,.1h-.5c0,0,0,0,0,0ZM46.7,65.2c-.1,0-.3,0-.4,0,0,0-1.4.7-2.6.2-.2,0-.3,0-.4,0,0-.7,0-1.6,0-2.5.7-.2,1.3-.5,1.7-.8.9-.5,1.7-1.1,2.4-1.8,0,1.2-.2,3.9.6,4.6,0,.2-.7.4-1.2.3Z"/>
          <path class="cls-2" d="M24.4,39.5c-.3,0-.5.3-.5.5s.3.5.5.5c.7,0,1.6.5,1.7,1.2,0,.3.2.4.5.4s0,0,0,0c.3,0,.5-.3.4-.6-.1-1.3-1.5-2.1-2.7-2.1Z"/>
          <path class="cls-2" d="M35.9,42.1s0,0,0,0c.3,0,.5-.2.5-.4,0-.7,1-1.2,1.7-1.2.3,0,.5-.2.5-.5s-.2-.5-.5-.5c-1.2,0-2.6.8-2.7,2.1,0,.3.2.5.4.6Z"/>
          <path class="cls-2" d="M37.2,31.2c.8,0,1.7-.3,2.2-.8.2-.2.2-.5,0-.7-.2-.2-.5-.2-.7,0-.5.5-1.8.7-2.4.2-.2-.2-.5,0-.7.1-.2.2,0,.5.1.7.4.3,1,.4,1.5.4Z"/>
          <path class="cls-2" d="M25.4,31.3c.5,0,1.1-.1,1.5-.4.2-.2.3-.5.1-.7-.2-.2-.5-.3-.7-.1-.7.5-2,.2-2.6-.3-.2-.2-.5-.2-.7,0-.2.2-.2.5,0,.7.5.5,1.4.9,2.3.9Z"/>
        </g>
      </g>
    </g>
  </g>
</svg>