<?xml version="1.0" encoding="UTF-8"?>
<svg xmlns="http://www.w3.org/2000/svg" version="1.1" viewBox="0 0 62.8 73.3">
  <defs>
    <style>
      .cls-1 {
        fill: gray;
      }

      .cls-2 {
        fill: gold;
      }

      .cls-3 {
        fill: #fff;
      }

      .cls-4 {
        fill: darkmagenta;
      }

      .cls-5 {
        fill: #27aae1;
      }
    </style>
  </defs>
  <!-- Generator: Adobe Illustrator 28.7.1, SVG Export Plug-In . SVG Version: 1.2.0 Build 142)  -->
  <g>
    <g id="Layer_1">
      <g>
        <path class="cls-5" d="M51.9,44.7c4.3-1.1,6.7-2.4,6.7-3.7s-3.2-3.1-8.7-4.2c.7,1.4,1.2,3,1.6,4.8.2,1,.3,2.1.4,3.1Z"/>
        <path class="cls-5" d="M4.1,41c0,1.2,2.3,2.5,6.2,3.6.2-2.9.9-5.5,2.1-7.7-5.3,1.1-8.4,2.7-8.4,4.1Z"/>
        <g>
          <path class="cls-3" d="M48.6,34.6c.2.3.4.7.6,1,6.1,1.1,10.3,2.9,10.3,5.3s-3,3.6-7.6,4.8c-.3,0-.7.2-1,.2-.8.2-1.6.3-2.5.5-.2.9-.6,1.8-1.2,2.7,1.3-.2,2.5-.5,3.7-.8.3,0,.7-.2,1-.3,3.8-1,6.7-2.4,8.3-4.1,1.1-1.1,1.6-2.3,1.6-3.5,0-1.5-3.9-5.2-13.2-5.9Z"/>
          <path class="cls-3" d="M11.3,45.9c-.3,0-.7-.2-1-.2-4.3-1.1-7.2-2.7-7.2-4.7s4.1-4.1,10.1-5.3c.2-.3.5-.7.7-1-3.2.3-11.7,1.6-12.8,6.3-.3,1.1,0,2,.7,3,1.4,1.8,4.6,3.2,8.6,4.3.3,0,.7.2,1,.3,1,.2,2.1.5,3.3.7-.6-.9-1-1.8-1.2-2.7-.7-.1-1.5-.3-2.2-.5Z"/>
        </g>
        <path class="cls-3" d="M51.9,49.2c-.3,0-.7.2-1,.2-1.4.3-3,.6-4.6.9-.4.4-.8.7-1.3,1-1.3.8-2.7,1.2-4.2,1.2s-.7,0-1,0c-1.2.6-5.5,2.8-8.8,2.8s-8.7-2.6-9-2.8c-.2,0-.5,0-.7,0-1.5,0-2.9-.4-4.2-1.2-.5-.3-1-.7-1.4-1.1-1.4-.2-2.8-.5-4.1-.8-.4,0-.7-.2-1-.2-1.8-.4-3.4-.9-4.8-1.5v1.3c.6,12.5,1.1,23.4,26.5,23.4s26.4-6.3,26.5-25.9c-1.8,1.1-4.1,2-6.9,2.7Z"/>
        <g>
          <path class="cls-2" d="M50.9,45c0-1.1-.2-2.2-.4-3.2-.4-2-1-3.7-1.9-5.2-.2-.4-.4-.8-.7-1.1-1.4-2-3.1-3.4-5-3.8.2.8.7,1.7,1.3,2.6.1.2.3.5.4.7.2.4.4.7.6,1.1.6,1.2,1,2.5.7,3.7,1.6,1.2,2.7,2.9,2.6,5.6,0,0,0,0,0,.1.8-.1,1.6-.3,2.3-.5Z"/>
          <path class="cls-2" d="M39.9,23c1.5-1.7,1.8-3,1.4-3.6-.2-.4-.6-.6-1-.5-.8,0-2,.9-2.6,2.9.7.3,1.4.9,2.1,1.5,0-.1,0-.2.1-.3Z"/>
          <path class="cls-2" d="M16,39.8c-.3-1.2,0-2.5.6-3.6.2-.4.4-.7.6-1.1.2-.3.3-.5.5-.8.5-.9,1.1-1.7,1.3-2.4-1.7.8-3.2,2.1-4.4,3.6-.3.4-.6.8-.8,1.2-1.4,2.3-2.2,5.1-2.4,8.2.6.2,1.3.3,2,.4,0-2.6,1.1-4.3,2.6-5.5Z"/>
          <path class="cls-2" d="M38.2,37.9c-1.4-.3-2.6-.6-3.3-.9-.2-.1-.3-.4-.2-.7.1-.2.4-.3.7-.2.6.3,1.7.6,3.1.9,2,.4,4.6,1,6.6,2.2.1-1-.4-2.2-1-3.3-.2-.4-.4-.7-.7-1.1,0,0,0,0,0,0-.8-1.4-1.6-2.6-1.5-3.8.3-3.7-2.2-7.1-4.7-8.3-2.2-1-3.8-1.2-5.6-1.2,0,0-.2,0-.2,0-.1,0-.2,0-.3,0-.1,0-.2,0-.3,0,0,0-.2,0-.2,0-1.8,0-3.4.2-5.6,1.2-2.5,1.1-5,4.6-4.7,8.3,0,0,0,0,0,0,0,0,0,0,0,0,0,1.2-.7,2.4-1.5,3.8,0,0,0,0,0,.1-.2.4-.4.7-.7,1.1-.6,1.1-1.1,2.2-.9,3.2,2-1.2,4.6-1.8,6.6-2.2,1.3-.3,2.4-.5,3.1-.9.2-.1.5,0,.7.2.1.2,0,.5-.2.7-.7.4-1.9.6-3.3.9-4,.9-9.5,2-9.4,7.4,0,0,0,.1,0,.2,0,.3,0,.7.2,1.1.3.9.8,1.9,1.6,2.8.4.4.9.9,1.5,1.2,0,0,0,0,0,0,1.3.8,3.4,1.5,6.2.6.4-.1.7-.3,1.1-.4.4-.2.7-.3,1-.5,3.4-1.5,4.6-1.7,5.1-1.5.5-.1,1.6,0,5.1,1.6.3.1.6.3.9.4.4.2.8.3,1.2.5,2.7.9,4.7.2,6-.6,0,0,0,0,.1,0,.5-.3,1-.7,1.4-1.1.8-.9,1.4-1.8,1.6-2.7.1-.4.2-.7.2-1.1,0-.1,0-.2,0-.3,0-5.3-5.4-6.5-9.4-7.4ZM37.9,39.6c.3,0,.5.3.5.5,0,.3-.3.5-.5.5-.7,0-1.6.5-1.7,1.2,0,.3-.2.4-.5.4s0,0,0,0c-.3,0-.5-.3-.4-.6.1-1.3,1.6-2.2,2.7-2.1ZM35.3,28.9c1.1-.8,2.9-.4,3.8.4.2.2.2.5,0,.7,0,.1-.2.2-.4.2s-.2,0-.3-.1c-.6-.5-1.9-.8-2.6-.3-.2.2-.5,0-.7-.1-.2-.2,0-.5.1-.7ZM22.9,29.4c.8-.8,2.6-1.1,3.7-.3.2.2.3.5.1.7-.2.2-.5.3-.7.1-.7-.5-1.9-.3-2.4.2,0,0-.2.1-.3.1s-.3,0-.4-.2c-.2-.2-.2-.5,0-.7ZM24.1,39.6c1.2,0,2.6.8,2.7,2.1,0,.3-.2.5-.4.6,0,0,0,0,0,0-.3,0-.5-.2-.5-.4,0-.7-1-1.3-1.7-1.2-.3,0-.5-.2-.5-.5,0-.3.2-.5.5-.5Z"/>
          <path class="cls-2" d="M22.2,23.3c.7-.6,1.4-1.2,2.1-1.5-.7-2-1.8-2.8-2.6-2.9-.5,0-.9.1-1,.5-.3.6,0,1.9,1.4,3.6,0,0,.1.2.1.3Z"/>
          <path class="cls-2" d="M35.9,51.3c-.9-.4-1.6-.7-2.2-.9-1.3-.5-1.9-.6-2.2-.7,0,.1-.1.2-.2.3,0,0-.2,0-.3,0,0,0-.2,0-.3,0-.1,0-.2-.2-.2-.3-.3,0-.9.2-2.2.7-.6.2-1.3.5-2.2.9-.3.1-.5.2-.8.4-.6.3-1.1.5-1.7.6,1.7.8,4.9,2.1,7.3,2.1s5.5-1.3,7.2-2.1c-.5-.1-1-.3-1.5-.6-.3-.1-.5-.2-.7-.3Z"/>
        </g>
        <g>
          <path class="cls-4" d="M24.1,39.6c-.3,0-.5.3-.5.5,0,.3.3.5.5.5.7,0,1.6.5,1.7,1.2,0,.3.2.4.5.4s0,0,0,0c.3,0,.5-.3.4-.6-.1-1.3-1.5-2.2-2.7-2.1Z"/>
          <path class="cls-4" d="M35.6,42.3s0,0,0,0c.3,0,.5-.2.5-.4,0-.7,1-1.2,1.7-1.2.3,0,.5-.2.5-.5,0-.3-.2-.5-.5-.5-1.1,0-2.6.8-2.7,2.1,0,.3.2.5.4.6Z"/>
          <path class="cls-4" d="M22.9,29.4c-.2.2-.2.5,0,.7,0,.1.2.2.4.2s.3,0,.3-.1c.5-.5,1.8-.7,2.4-.2.2.2.5,0,.7-.1.2-.2,0-.5-.1-.7-1.1-.8-2.9-.5-3.7.3Z"/>
          <path class="cls-4" d="M35.3,28.9c-.2.2-.3.5-.1.7.2.2.5.3.7.1.7-.5,2-.2,2.6.3,0,0,.2.1.3.1s.3,0,.4-.2c.2-.2.2-.5,0-.7-.9-.8-2.7-1.2-3.8-.4Z"/>
          <path class="cls-4" d="M51.5,41.6c-.4-1.8-.9-3.4-1.6-4.8-.2-.4-.4-.8-.6-1.2-.2-.4-.4-.7-.6-1-.2-.3-.5-.7-.8-1-1.4-1.6-3.1-2.7-5-3.1,0-2.5-1-5-2.6-6.7.1,0,.3,0,.3-.2,2.3-2.5,1.9-4.1,1.6-4.7-.4-.7-1.1-1.1-2-1.1-1.2.1-2.6,1.1-3.5,3.5-2.2-.9-3.8-1-5.8-.9-1.9-.1-3.6,0-5.8.9-.8-2.4-2.3-3.4-3.5-3.5-.9,0-1.7.3-2,1.1-.3.6-.7,2.2,1.6,4.7,0,.1.2.2.3.2-1.5,1.7-2.7,4.2-2.6,6.8-1.6.7-3,1.7-4.3,2.9-.3.3-.6.7-.9,1.1-.3.3-.5.7-.7,1-.2.4-.5.8-.7,1.2-1.2,2.2-1.9,4.8-2.1,7.7.3,0,.6.2,1,.2.2-3.2,1-6,2.4-8.2.3-.4.5-.8.8-1.2,1.2-1.6,2.7-2.8,4.4-3.6-.2.7-.7,1.6-1.3,2.4-.2.3-.3.5-.5.8-.2.4-.4.7-.6,1.1-.6,1.2-1,2.4-.6,3.6-1.6,1.2-2.7,2.9-2.6,5.5,0,0,0,0,0,0,0,.3,0,.7.1,1,.2.9.6,1.9,1.2,2.7.3.4.6.8,1,1.2.4.4.9.8,1.4,1.1,1.3.8,2.7,1.2,4.2,1.2s.5,0,.7,0c.3.2,5.3,2.8,9,2.8s7.6-2.2,8.8-2.8c.3,0,.7,0,1,0,1.5,0,2.9-.4,4.2-1.2.5-.3.9-.7,1.3-1,.4-.4.7-.8,1-1.2.6-.8,1-1.8,1.2-2.7,0-.4.1-.7.2-1.1,0,0,0,0,0-.1,0-2.6-1.1-4.3-2.6-5.6.3-1.3,0-2.5-.7-3.7-.2-.4-.4-.7-.6-1.1-.1-.2-.3-.5-.4-.7-.6-1-1.2-1.9-1.3-2.6,1.9.5,3.7,1.8,5,3.8.2.4.5.7.7,1.1.8,1.5,1.4,3.2,1.9,5.2.2,1,.3,2.1.4,3.2.3,0,.7-.2,1-.2,0-1.1-.2-2.1-.4-3.1ZM40.3,18.9c.5,0,.9.1,1,.5.3.6,0,1.9-1.4,3.6,0,0-.1.2-.1.3-.7-.6-1.4-1.2-2.1-1.5.7-2,1.8-2.8,2.6-2.9ZM22,23c-1.5-1.7-1.8-3-1.4-3.6.2-.4.6-.6,1-.5.8,0,2,.9,2.6,2.9-.7.3-1.4.9-2.1,1.5,0-.1,0-.2-.1-.3ZM31,54.3c-2.5,0-5.6-1.3-7.3-2.1.6-.2,1.1-.4,1.7-.6.3-.1.5-.2.8-.4.9-.4,1.6-.7,2.2-.9,1.3-.5,1.9-.6,2.2-.7,0,.1.1.2.2.3,0,0,.2,0,.3,0,0,0,.2,0,.3,0,.1,0,.2-.2.2-.3.3,0,.9.2,2.2.7.6.2,1.3.5,2.2.9.2.1.5.2.7.3.5.2,1,.4,1.5.6-1.7.8-4.8,2.1-7.2,2.1ZM43.4,34.8s0,0,0,0c.2.4.4.7.7,1.1.6,1.1,1.1,2.2,1,3.3-2-1.2-4.6-1.8-6.6-2.2-1.3-.3-2.4-.5-3.1-.9-.2-.1-.5,0-.7.2-.1.2,0,.5.2.7.7.4,1.9.6,3.3.9,4,.9,9.5,2,9.4,7.4,0,0,0,.2,0,.3,0,.3,0,.7-.2,1.1-.3.9-.8,1.9-1.6,2.7-.4.4-.8.8-1.4,1.1,0,0,0,0-.1,0-1.3.8-3.3,1.4-6,.6-.4-.1-.8-.3-1.2-.5-.3-.2-.6-.3-.9-.4-3.5-1.6-4.6-1.7-5.1-1.6-.5-.1-1.6,0-5.1,1.5-.3.1-.6.3-1,.5-.4.2-.7.3-1.1.4-2.8.9-4.9.2-6.2-.6,0,0,0,0,0,0-.6-.4-1.1-.8-1.5-1.2-.8-.9-1.3-1.9-1.6-2.8-.1-.4-.2-.7-.2-1.1,0,0,0-.1,0-.2,0-5.3,5.4-6.5,9.4-7.4,1.4-.3,2.6-.6,3.3-.9.2-.1.3-.4.2-.7-.1-.2-.4-.3-.7-.2-.6.3-1.7.6-3.1.9-2,.4-4.6,1-6.6,2.2-.1-1,.3-2.1.9-3.2.2-.4.4-.7.7-1.1,0,0,0,0,0-.1.8-1.3,1.6-2.6,1.5-3.8,0,0,0,0,0,0,0,0,0,0,0,0-.3-3.7,2.2-7.1,4.7-8.3,2.2-1,3.8-1.2,5.6-1.2,0,0,.2,0,.2,0,.1,0,.2,0,.3,0,.1,0,.2,0,.3,0,0,0,.2,0,.2,0,1.8,0,3.4.2,5.6,1.2,2.5,1.1,5,4.6,4.7,8.3,0,1.2.7,2.5,1.5,3.8Z"/>
        </g>
        <g>
          <path class="cls-1" d="M12.5,36.9c.2-.4.5-.8.7-1.2-5.9,1.2-10.1,2.9-10.1,5.3s2.8,3.5,7.2,4.7c.3,0,.7.2,1,.2.7.2,1.4.3,2.2.5,0-.3-.1-.7-.1-1,0,0,0,0,0,0-.7-.1-1.4-.3-2-.4-.3,0-.7-.2-1-.2-4-1.1-6.2-2.4-6.2-3.6s3.1-3,8.4-4.1Z"/>
          <path class="cls-1" d="M51.9,44.7c-.3,0-.6.2-1,.2-.7.2-1.5.3-2.3.5,0,.3,0,.7-.2,1.1.9-.2,1.7-.3,2.5-.5.3,0,.7-.2,1-.2,4.6-1.1,7.6-2.7,7.6-4.8s-4.3-4.2-10.3-5.3c.2.4.4.8.6,1.2,5.5,1.1,8.7,2.7,8.7,4.2s-2.5,2.7-6.7,3.7Z"/>
          <path class="cls-1" d="M62.8,40.5c0-2.1-4.4-6.3-14.6-6.9-.1,0-.2,0-.3,0,.3.3.5.6.8,1,9.3.7,13.1,4.4,13.2,5.9,0,1.3-.5,2.5-1.6,3.5-1.6,1.7-4.5,3-8.3,4.1-.3,0-.7.2-1,.3-1.2.3-2.4.5-3.7.8-.3.4-.6.8-1,1.2,1.6-.3,3.2-.6,4.6-.9.3,0,.7-.2,1-.2,2.8-.7,5.2-1.7,6.9-2.7-.1,19.6-6.6,25.9-26.5,25.9S6.3,61.5,5.8,49v-1.3c1.4.6,3,1.1,4.7,1.5.3,0,.7.2,1,.2,1.3.3,2.7.6,4.1.8-.4-.4-.7-.8-1-1.2-1.1-.2-2.2-.4-3.3-.7-.3,0-.7-.2-1-.3-4-1-7.1-2.4-8.6-4.3-.7-.9-1-1.9-.7-3,1.1-4.7,9.6-5.9,12.8-6.3.3-.4.6-.7.9-1.1-1.7.1-13.2,1-14.7,7.1-.3,1.4,0,2.6.9,3.8.8,1,2.1,1.9,3.7,2.7,0,0,0,0,0,.1v1.7c.6,12.5,1.2,24.3,27.6,24.3s27.6-6.9,27.6-27.4,0,0,0-.1c.4-.3.9-.7,1.2-1,1.2-1.3,1.9-2.7,1.8-4.3Z"/>
        </g>
      </g>
    </g>
  </g>
</svg>