<?xml version="1.0" encoding="UTF-8"?>
<svg xmlns="http://www.w3.org/2000/svg" version="1.1" viewBox="0 0 62.8 73.3">
  <defs>
    <style>
      .cls-1 {
        fill: olive;
      }

      .cls-2 {
        fill: gold;
      }
    </style>
  </defs>
  <!-- Generator: Adobe Illustrator 28.7.1, SVG Export Plug-In . SVG Version: 1.2.0 Build 142)  -->
  <g>
    <g id="Layer_1">
      <g>
        <g>
          <path class="cls-1" d="M42.9,25.1c0-.1,0-.2.2-.3,1.8-1.4,2.3-2.6,2.1-3.3-.1-.4-.5-.6-.9-.7-.8,0-2.1.5-3.1,2.4.6.5,1.3,1.1,1.8,1.9Z"/>
          <path class="cls-1" d="M50.8,42.3c-.9-5.4-3.3-9.5-6-10.4,0,.4-.1.9-.2,1.3-.2.8.3,2.1.8,3.4.7,1.9,1.6,4,.7,5.8,1.3,1.5,2.1,3.4,1.6,5.9-.4,2.2-2.4,4.3-4.7,5.3-.9.4-1.9.6-2.9.6s-1.6-.1-2.4-.4c-1,.3-4.3,1.3-7.3,1.3s-1.3,0-1.8-.2c-3.7-.7-8-4-8.4-4.3-1.8-.2-3.3-.8-4.6-2-1.9-1.7-2.9-4.5-2.6-6.6.4-2.6,1.8-4.1,3.6-5-.2-2,1.3-3.6,2.7-5.1,0,0,0,0,0,0-4.5,2.2-7.3,7.1-7.6,13.4-.3,7,2.6,13.4,7.4,15.8.4.2.8.4,1.3.6,0-2.2,0-4.6,0-6.9,0-.3.2-.5.5-.5.3,0,.5.2.5.5,0,.1,0,.3,0,.4,0,2,0,4.5,0,6.9,0,.4,0,.7,0,1,0,3.3-.2,6.1-.7,6.5,0,0,0,.2.2.3.4.2.8.2,1.2.1.1,0,.3,0,.4,0,0,0,1.7.8,3.1.2,0,0,.2,0,.3,0,.7,0,1.4,0,1.7,0h0c0-.2-.6-3.2-.7-6,0-.3,0-.7,0-1,0-1,.1-2,.4-2.8,0,0,0-.1,0-.2.1-.2.3-.2.5-.2.3,0,.4.4.3.6-.2.7-.3,1.6-.3,2.6,2.7.3,5.5.3,8.1.2,0-1,0-2-.3-2.7,0-.3,0-.5.3-.6.2,0,.4,0,.5.1,0,0,0,.1,0,.2.3.8.4,1.8.4,3,0,.3,0,.7,0,1-.1,2.8-.7,5.6-.7,5.8h0c.2.1,1,.1,1.7,0,0,0,.2,0,.3,0,1.5.6,3.1-.2,3.1-.2.1,0,.3,0,.4,0,.3.1.8,0,1.2-.1.2-.1.3-.2.3-.2-.4-.4-.7-3-.8-6.1,0-.3,0-.7,0-1,0-2.5,0-5.1,0-7.3,0-.1,0-.3,0-.4,0-.3.2-.5.5-.5h0c.3,0,.5.2.5.5,0,2.5,0,5.1,0,7.4.5-.2.9-.4,1.2-.6,6.4-3.8,7.4-12.7,6.4-19.1Z"/>
          <path class="cls-1" d="M25.6,21.9c.8-.5,1.6-.9,2.3-1.1-.3-2.1-1.3-3.1-2.1-3.3-.5-.1-.9,0-1.1.3-.4.6-.4,1.9.8,3.8,0,0,0,.2,0,.3Z"/>
          <path class="cls-1" d="M16.9,60.8c0,1.3,0,3.6-.6,4.3,0,.1.7.4,1.1.2.1,0,.3,0,.4,0,0,0,1.3.6,2.5.2,0-.9,0-1.8,0-2.9-.6-.2-1.2-.5-1.7-.7-.6-.3-1.2-.7-1.7-1.1Z"/>
          <path class="cls-1" d="M24.4,35.6c1.3,0,2.5,0,3.2-.3.3,0,.5,0,.6.3,0,.3,0,.5-.3.6-.8.3-2,.3-3.4.3-4.1.1-9.7.3-10.6,5.6-.3,1.5.3,3.9,2.3,5.7,1.3,1.2,3.6,2.4,7.2,1.5,4.5-1.2,5.8-1.1,6.3-.9.5,0,1.8.4,5.6,3,.8.6,1.6,1,2.3,1.2,0,0,0,0,0,0h0c2,.7,3.7.4,4.9,0,2.4-1,3.8-3,4.1-4.5,1-5.2-4.1-7.4-7.9-8.9-1.3-.5-2.4-1-3.1-1.5-.2-.2-.3-.5,0-.7.2-.2.5-.3.7,0,.5.4,1.6.9,2.9,1.4,1.9.8,4.3,1.8,6.1,3.3.4-1.3-.2-3-.9-4.6-.6-1.5-1.1-2.9-.8-4,.9-3.6-.9-7.4-3.1-9-2-1.4-3.5-1.9-5.3-2.2,0,0-.2,0-.2,0-.1,0-.2,0-.3,0-.1,0-.2,0-.3,0,0,0-.2,0-.2,0-1.8-.4-3.4-.4-5.7.1-2.6.7-5.7,3.6-6.1,7.3-.1,1.2-1.1,2.3-2.2,3.5-1.2,1.3-2.4,2.6-2.4,4,2.2-.8,4.8-.9,6.9-1ZM26.3,41.3s0,0,0,0c-.3,0-.5-.3-.5-.5,0-.7-.7-1.4-1.4-1.5-.3,0-.5-.3-.4-.6,0-.3.3-.5.6-.4,1.2.1,2.4,1.3,2.3,2.5,0,.3-.2.5-.5.5ZM37.8,30.4c.1-.8.9-1.3,1.7-1.2.8.1,1.3.9,1.2,1.7-.1.8-.9,1.3-1.7,1.2-.8-.1-1.3-.9-1.2-1.7ZM35,42.4c.4-1.2,1.9-1.8,3-1.6.3,0,.4.3.4.6,0,.3-.3.4-.6.4-.7-.2-1.6.2-1.8.9,0,.2-.3.4-.5.4s0,0-.1,0c-.3,0-.4-.4-.3-.6ZM25.6,28.1c.1-.8.9-1.3,1.7-1.2.8.1,1.3.9,1.2,1.7-.1.8-.9,1.3-1.7,1.2-.8-.1-1.3-.9-1.2-1.7Z"/>
          <path class="cls-1" d="M30,49.5c0,0-.1.2-.3.2-.1,0-.2,0-.3,0,0,0-.2,0-.3-.1,0,0-.1-.2-.2-.3-.4,0-1.7,0-5.4,1-.6.2-1.2.2-1.8.3,1.5,1.1,4.4,2.9,6.9,3.4,2.4.4,5.6-.3,7.5-.8-.5-.2-.9-.5-1.4-.8-3.1-2.2-4.3-2.7-4.7-2.8Z"/>
          <path class="cls-1" d="M47.3,60.5c-.7.7-1.5,1.3-2.4,1.8-.5.3-1.1.5-1.7.8,0,.9,0,1.7,0,2.5.1,0,.3-.1.4,0,1.2.5,2.6-.2,2.6-.2.1,0,.3,0,.4,0,.4.1,1.1-.1,1.2-.3-.8-.7-.7-3.4-.6-4.6Z"/>
          <path class="cls-1" d="M35.6,70.1h0s0,0,0,0h.5c0,0,0,0,0,0h-.5Z"/>
        </g>
        <g>
          <path class="cls-2" d="M48.3,60.5c0-.3-.2-.5-.5-.5,0,0,0,0,0,0,4.3-4.7,5-12.2,4-17.8-1-6.1-3.7-10.4-7-11.2,0-1.9-.6-3.7-1.5-5.2,0,0,0,0,0,0,.1,0,.2,0,.3-.1,2.7-2.1,2.6-3.7,2.4-4.3-.2-.8-.9-1.3-1.8-1.4-1.2-.1-2.8.6-4,2.8-2-1.2-3.6-1.7-5.5-1.9-1.9-.5-3.6-.6-5.9-.2-.4-2.5-1.6-3.7-2.8-4.1-.9-.2-1.7,0-2.2.7-.4.5-1.1,2,.7,4.9,0,.1.2.2.3.2-1.9,1.5-3.5,3.9-3.8,6.6,0,.5-.4,1.1-.9,1.7-.1-.1-.3-.2-.5-.1-5.4,2.1-8.8,7.6-9.1,14.6-.3,6.1,1.8,11.7,5.3,14.9-.1,0-.2.2-.2.4.1,1.8,0,3.6-.3,3.9-.4.3-.4.8-.2,1.2.4.6,1.3.9,2.1.8.3.1,1,.4,1.9.4s.5,0,.8,0c0,1.2-.2,2-.3,2.2-.4.4-.5.9-.2,1.3.4.6,1.5,1,2.4.8.4.1,1.2.4,2.2.4s1,0,1.5-.3c.7,0,2,.2,2.5-.4.1-.1.3-.4.1-.8,0,0-.6-2.9-.7-5.7,1.6.2,3.3.3,4.9.3s2.1,0,3.1,0c-.1,2.7-.7,5.4-.7,5.4-.2.4,0,.8.1.9.5.6,1.8.5,2.5.4.5.2,1,.3,1.5.3,1,0,1.8-.3,2.2-.4.9.2,2-.2,2.4-.8.3-.4.2-.9-.2-1.2-.1-.2-.2-1.1-.3-2.4,0,0,0,0,0,0,.5.2,1,.3,1.4.3.8,0,1.5-.2,1.9-.4.8.2,1.8-.2,2.1-.8.2-.4.2-.9-.2-1.2-.3-.3-.4-2.1-.3-3.9ZM44.2,20.9c.5,0,.8.3.9.7.2.7-.2,1.9-2.1,3.3,0,0-.1.2-.2.3-.5-.8-1.2-1.4-1.8-1.9,1-1.8,2.3-2.4,3.1-2.4ZM25.5,21.6c-1.2-1.9-1.2-3.2-.8-3.8.2-.3.6-.4,1.1-.3.8.2,1.8,1.2,2.1,3.3-.8.2-1.6.6-2.3,1.1,0-.1,0-.2,0-.3ZM22.2,29.1c.4-3.7,3.5-6.6,6.1-7.3,2.3-.6,4-.5,5.7-.1,0,0,.1,0,.2,0,.1,0,.2,0,.3,0,.1,0,.2,0,.3,0,0,0,.2,0,.2,0,1.8.3,3.4.8,5.3,2.2,2.2,1.5,4.1,5.4,3.1,9-.3,1.1.2,2.6.8,4,.6,1.6,1.3,3.3.9,4.6-1.8-1.6-4.2-2.6-6.1-3.3-1.2-.5-2.3-1-2.9-1.4-.2-.2-.5-.1-.7,0-.2.2-.1.5,0,.7.7.5,1.8,1,3.1,1.5,3.8,1.6,8.9,3.7,7.9,8.9-.3,1.5-1.7,3.6-4.1,4.5-1.2.5-2.9.8-4.9,0h0s0,0,0,0c-.7-.3-1.5-.6-2.3-1.2-3.8-2.7-5.1-3.1-5.6-3-.5-.2-1.8-.3-6.3.9-3.6.9-5.9-.3-7.2-1.5-1.9-1.8-2.5-4.2-2.3-5.7.9-5.3,6.5-5.4,10.6-5.6,1.4,0,2.6,0,3.4-.3.3,0,.4-.4.3-.6,0-.3-.4-.4-.6-.3-.7.2-1.8.2-3.2.3-2.1,0-4.7.1-6.9,1,0-1.4,1.3-2.7,2.4-4,1.1-1.2,2.1-2.3,2.2-3.5ZM29.2,49.7c0,0,.2,0,.3.1,0,0,.2,0,.3,0,.1,0,.2-.1.3-.2.4.1,1.6.6,4.7,2.8.5.3.9.6,1.4.8-1.9.5-5.1,1.2-7.5.8-2.4-.4-5.3-2.3-6.9-3.4.6,0,1.2-.1,1.8-.3,3.7-.9,5-1,5.4-1,0,.1,0,.2.2.3ZM17.8,65.4c-.1,0-.3,0-.4,0-.4.1-1.1-.1-1.1-.2.7-.7.7-3,.6-4.3.5.4,1.1.8,1.7,1.1.5.3,1.1.5,1.7.7,0,1.1,0,2.1,0,2.9-1.2.4-2.5-.2-2.5-.2ZM27.7,63.2c0-1,0-1.9.3-2.6,0-.3,0-.5-.3-.6-.2,0-.4,0-.5.2,0,0,0,.1,0,.2-.2.7-.3,1.7-.4,2.8,0,.3,0,.7,0,1,0,2.8.7,5.8.7,6h0c-.3.1-1,.1-1.7,0,0,0-.2,0-.3,0-1.5.6-3.1-.2-3.1-.2-.1,0-.3,0-.4,0-.3.1-.8,0-1.2-.1-.2-.1-.3-.2-.2-.3.4-.4.6-3.2.7-6.5,0-.3,0-.7,0-1,0-2.3,0-4.8,0-6.9,0-.1,0-.3,0-.4,0-.3-.2-.5-.5-.5-.3,0-.5.2-.5.5,0,2.3,0,4.8,0,6.9-.5-.2-.9-.4-1.3-.6-4.8-2.4-7.7-8.8-7.4-15.8.3-6.3,3.1-11.2,7.6-13.4,0,0,0,0,0,0-1.3,1.5-2.9,3.2-2.7,5.1-1.8.9-3.2,2.4-3.6,5-.4,2.2.7,4.9,2.6,6.6,1.3,1.2,2.9,1.9,4.6,2,.4.3,4.7,3.7,8.4,4.3.6.1,1.2.2,1.8.2,3,0,6.3-1,7.3-1.3.8.2,1.6.4,2.4.4s2-.2,2.9-.6c2.4-1,4.3-3.1,4.7-5.3.5-2.6-.3-4.5-1.6-5.9.9-1.8,0-3.9-.7-5.8-.5-1.3-1-2.6-.8-3.4.1-.4.2-.8.2-1.3,2.7.8,5.1,4.9,6,10.4,1.1,6.4,0,15.3-6.4,19.1-.3.2-.8.4-1.2.6,0-2.3,0-4.9,0-7.4,0-.3-.2-.5-.5-.5h0c-.3,0-.5.2-.5.5,0,.1,0,.3,0,.4,0,2.1,0,4.8,0,7.3,0,.3,0,.7,0,1,0,3.1.3,5.7.8,6.1,0,0,0,.1-.3.2-.4.2-.8.2-1.2.1-.1,0-.3,0-.4,0,0,0-1.6.8-3.1.2,0,0-.2,0-.3,0-.7.1-1.5,0-1.7,0h0c0-.2.6-3,.7-5.8,0-.3,0-.7,0-1,0-1.1,0-2.2-.4-3,0,0,0-.1,0-.2-.1-.1-.3-.2-.5-.1-.3,0-.4.4-.3.6.2.7.3,1.7.3,2.7-2.6.2-5.4.1-8.1-.2ZM35.6,70.1h0s.5,0,.5,0c0,0,0,0,0,.1h-.5c0,0,0,0,0,0ZM46.8,65.3c-.1,0-.3,0-.4,0,0,0-1.4.7-2.6.2-.2,0-.3,0-.4,0,0-.7,0-1.6,0-2.5.7-.2,1.3-.5,1.7-.8.9-.5,1.7-1.1,2.4-1.8,0,1.2-.2,3.9.6,4.6,0,.2-.7.4-1.2.3Z"/>
          <path class="cls-2" d="M26.8,29.8c.8.1,1.5-.4,1.7-1.2.1-.8-.4-1.5-1.2-1.7-.8-.1-1.5.4-1.7,1.2-.1.8.4,1.5,1.2,1.7Z"/>
          <path class="cls-2" d="M39,32.1c.8.1,1.5-.4,1.7-1.2.1-.8-.4-1.5-1.2-1.7-.8-.1-1.5.4-1.7,1.2s.4,1.5,1.2,1.7Z"/>
          <path class="cls-2" d="M24.5,38.3c-.3,0-.5.2-.6.4,0,.3.2.5.4.6.7,0,1.5.8,1.4,1.5,0,.3.2.5.5.5,0,0,0,0,0,0,.3,0,.5-.2.5-.5,0-1.3-1.1-2.4-2.3-2.5Z"/>
          <path class="cls-2" d="M35.4,43s0,0,.1,0c.2,0,.4-.1.5-.4.2-.7,1.2-1,1.8-.9.3,0,.5,0,.6-.4,0-.3,0-.5-.4-.6-1.1-.3-2.7.3-3,1.6,0,.3,0,.5.3.6Z"/>
        </g>
      </g>
    </g>
  </g>
</svg>